<svg width="209" height="69" viewBox="0 0 209 69" fill="none" xmlns="http://www.w3.org/2000/svg">
<path d="M208.444 63.4473C208.571 63.202 208.475 62.9003 208.23 62.7735L204.232 60.7072C203.987 60.5804 203.685 60.6764 203.558 60.9217C203.432 61.1671 203.528 61.4687 203.773 61.5955L207.326 63.4323L205.49 66.9856C205.363 67.2309 205.459 67.5326 205.704 67.6594C205.949 67.7862 206.251 67.6901 206.378 67.4448L208.444 63.4473ZM0.961444 1.71618C41.9193 4.88265 73.9256 26.552 105.64 44.4112C137.32 62.2516 168.688 76.2623 208.152 63.6941L207.848 62.7413C168.812 75.1731 137.777 61.361 106.13 43.5399C74.5177 25.7377 42.274 3.90709 1.03852 0.719155L0.961444 1.71618Z" fill="white"/>
</svg>
