<svg width="400" height="400" viewBox="0 0 400 400" fill="none" xmlns="http://www.w3.org/2000/svg">
<rect x="199.5" y="8.08353" width="272.236" height="272.236" rx="5" transform="rotate(45 199.5 8.08353)" fill="#1B8198"/>
<rect x="102" y="26.1528" width="194" height="348" rx="5" fill="white"/>
<rect x="188.037" y="57.3469" width="3.79068" height="30.4856" transform="rotate(-11.0505 188.037 57.3469)" fill="black"/>
<circle cx="199.5" cy="124.653" r="33.5" fill="#AADBE6" fill-opacity="0.79"/>
<path d="M182 77.1528H217L209.938 130.153H188.135L182 77.1528Z" fill="#04736C"/>
<path d="M185 99.8441C187.369 95.5252 193.553 88.1778 215 92.4353L210.333 130.153H188.333L185 99.8441Z" fill="#B99191"/>
<rect x="132" y="193.153" width="61" height="18" rx="5" fill="#BCE3EB"/>
<rect x="154" y="218.153" width="61" height="17" rx="5" fill="#BCE3EB"/>
<path d="M163.695 201.313C163.695 201.79 163.527 202.2 163.191 202.543C162.699 203.028 162.004 203.27 161.105 203.27C160.34 203.27 159.656 203.071 159.055 202.672C159.055 202.836 159.047 202.95 159.031 203.012C159 203.122 158.891 203.176 158.703 203.176V200.75H159.055C159.188 202.196 159.852 202.926 161.047 202.942C161.352 202.942 161.629 202.887 161.879 202.778C162.41 202.536 162.676 202.141 162.676 201.594C162.676 201.383 162.625 201.188 162.523 201.008C162.336 200.688 161.891 200.372 161.188 200.059C160.43 199.731 159.984 199.532 159.852 199.461C159.117 199.047 158.75 198.512 158.75 197.856C158.75 197.418 158.906 197.036 159.219 196.708C159.688 196.239 160.344 196.004 161.188 196.004C161.883 196.004 162.508 196.157 163.062 196.461C163.062 196.368 163.07 196.293 163.086 196.239C163.117 196.122 163.227 196.063 163.414 196.063V198.114H163.062C163.07 197.676 162.961 197.305 162.734 197C162.391 196.555 161.891 196.333 161.234 196.333C160.969 196.333 160.727 196.375 160.508 196.461C160 196.665 159.746 197.028 159.746 197.551C159.746 197.747 159.793 197.93 159.887 198.102C160.066 198.415 160.504 198.719 161.199 199.016C161.965 199.352 162.422 199.559 162.57 199.637C163.32 200.059 163.695 200.618 163.695 201.313Z" fill="black"/>
<path d="M188.152 221.122V221.426H187.215V227.848H187.848C187.887 227.848 187.926 227.852 187.965 227.86C188.09 227.883 188.152 227.981 188.152 228.153H185.34V227.848H186.277V222.176L183.57 228.211H183.324L180.758 222.809V227.848H181.391C181.43 227.848 181.469 227.852 181.508 227.86C181.633 227.883 181.695 227.981 181.695 228.153H179.352V227.848H180.289V221.426H179.352V221.122H181.027L183.746 226.852L186.277 221.122H188.152Z" fill="black"/>
<rect x="176" y="242.153" width="61" height="18" rx="5" fill="#1B8198"/>
<path d="M208.602 252.153H203.469V251.848H204.406V245.426H203.469V245.122H206.398V245.426H205.414V251.848H207.02C207.105 251.848 207.195 251.84 207.289 251.825C207.727 251.723 208.039 251.313 208.227 250.594L208.426 249.809H208.66L208.602 252.153Z" fill="white"/>
<rect x="138" y="329.153" width="121" height="25" rx="5" fill="#1B8198"/>
<path d="M171.184 342.153H168.652V341.848H169.414L168.535 339.575H166.086L165.207 341.848H165.781C165.82 341.848 165.859 341.852 165.898 341.86C166.023 341.883 166.086 341.981 166.086 342.153H164V341.848H164.738L167.363 335.122H167.797L170.48 341.848H170.879C170.918 341.848 170.957 341.852 170.996 341.86C171.121 341.883 171.184 341.981 171.184 342.153ZM168.406 339.235L167.305 336.399L166.215 339.235H168.406ZM175.648 342.153L175.555 340.911C175.172 341.801 174.555 342.254 173.703 342.27C173.289 342.27 172.91 342.149 172.566 341.907C171.957 341.461 171.652 340.754 171.652 339.786C171.652 339.2 171.785 338.672 172.051 338.204C172.488 337.438 173.137 337.055 173.996 337.055C174.645 337.055 175.16 337.266 175.543 337.688V334.829H174.43V334.536H176.422L176.445 341.86H177.031C177.078 341.86 177.117 341.864 177.148 341.872C177.266 341.887 177.324 341.981 177.324 342.153H175.648ZM172.648 339.645C172.648 340.012 172.688 340.34 172.766 340.629C172.961 341.411 173.379 341.801 174.02 341.801C174.34 341.801 174.625 341.688 174.875 341.461C175.344 341.04 175.578 340.36 175.578 339.422C175.578 338.977 175.512 338.59 175.379 338.262C175.137 337.653 174.73 337.348 174.16 337.348C173.934 337.348 173.727 337.399 173.539 337.5C172.945 337.829 172.648 338.543 172.648 339.645ZM182.07 342.153L181.977 340.911C181.594 341.801 180.977 342.254 180.125 342.27C179.711 342.27 179.332 342.149 178.988 341.907C178.379 341.461 178.074 340.754 178.074 339.786C178.074 339.2 178.207 338.672 178.473 338.204C178.91 337.438 179.559 337.055 180.418 337.055C181.066 337.055 181.582 337.266 181.965 337.688V334.829H180.852V334.536H182.844L182.867 341.86H183.453C183.5 341.86 183.539 341.864 183.57 341.872C183.688 341.887 183.746 341.981 183.746 342.153H182.07ZM179.07 339.645C179.07 340.012 179.109 340.34 179.188 340.629C179.383 341.411 179.801 341.801 180.441 341.801C180.762 341.801 181.047 341.688 181.297 341.461C181.766 341.04 182 340.36 182 339.422C182 338.977 181.934 338.59 181.801 338.262C181.559 337.653 181.152 337.348 180.582 337.348C180.355 337.348 180.148 337.399 179.961 337.5C179.367 337.829 179.07 338.543 179.07 339.645ZM186.547 337.465V337.172H187.367V336.059L188.246 335.813V337.172H190.062V337.465H188.246V341.028C188.254 341.614 188.469 341.915 188.891 341.93C189.266 341.875 189.551 341.524 189.746 340.875L190.062 340.934C190.062 340.942 190.062 340.95 190.062 340.958C189.883 341.84 189.434 342.282 188.715 342.282C187.871 342.25 187.422 341.747 187.367 340.77V337.465H186.547ZM191.586 339.657C191.586 339.993 191.613 340.297 191.668 340.571C191.871 341.508 192.367 341.977 193.156 341.977C193.305 341.977 193.449 341.958 193.59 341.918C194.309 341.692 194.668 340.922 194.668 339.61C194.668 339.383 194.656 339.176 194.633 338.989C194.492 337.895 193.988 337.348 193.121 337.348C192.934 337.348 192.754 337.379 192.582 337.442C191.918 337.708 191.586 338.446 191.586 339.657ZM193.156 337.055C193.672 337.055 194.145 337.192 194.574 337.465C195.301 337.942 195.664 338.672 195.664 339.657C195.664 340.383 195.438 340.989 194.984 341.473C194.492 342.004 193.871 342.27 193.121 342.27C192.59 342.27 192.105 342.122 191.668 341.825C190.949 341.333 190.59 340.594 190.59 339.61C190.59 338.899 190.82 338.305 191.281 337.829C191.781 337.313 192.406 337.055 193.156 337.055ZM198.887 339.715C198.887 339.2 198.984 338.739 199.18 338.333C199.594 337.481 200.324 337.055 201.371 337.055C201.793 337.055 202.184 337.145 202.543 337.325C203.051 337.583 203.305 337.911 203.305 338.309C203.305 338.356 203.297 338.407 203.281 338.461C203.211 338.696 203.043 338.805 202.777 338.79C202.684 338.782 202.598 338.758 202.52 338.719C202.395 338.641 202.309 338.446 202.262 338.133C202.238 338 202.219 337.903 202.203 337.84C202.117 337.512 201.863 337.348 201.441 337.348C201.168 337.348 200.918 337.418 200.691 337.559C200.152 337.903 199.883 338.586 199.883 339.61C199.883 340.188 200 340.688 200.234 341.11C200.547 341.665 200.98 341.942 201.535 341.942C201.598 341.942 201.66 341.938 201.723 341.93C202.387 341.868 202.863 341.528 203.152 340.911L203.457 341.016C203.402 341.149 203.328 341.282 203.234 341.415C202.82 341.985 202.207 342.27 201.395 342.27C200.848 342.27 200.359 342.125 199.93 341.836C199.234 341.368 198.887 340.661 198.887 339.715ZM208.098 342.27C207.551 342.262 207.23 341.911 207.137 341.215C207.066 341.379 206.961 341.536 206.82 341.684C206.43 342.075 205.949 342.27 205.379 342.27C205.145 342.27 204.922 342.227 204.711 342.141C204.188 341.922 203.926 341.516 203.926 340.922C203.926 340.75 203.949 340.59 203.996 340.442C204.262 339.676 205.312 339.293 207.148 339.293V338.555C207.125 337.797 206.746 337.395 206.012 337.348C205.699 337.348 205.469 337.446 205.32 337.641C205.281 337.696 205.207 337.868 205.098 338.157C205.012 338.383 204.879 338.497 204.699 338.497C204.66 338.497 204.621 338.493 204.582 338.485C204.355 338.446 204.242 338.305 204.242 338.063C204.242 337.93 204.289 337.797 204.383 337.665C204.68 337.258 205.266 337.055 206.141 337.055C206.211 337.055 206.281 337.055 206.352 337.055C207.469 337.118 208.027 337.708 208.027 338.825V341.297C208.035 341.688 208.141 341.891 208.344 341.907C208.594 341.899 208.746 341.61 208.801 341.04L209.105 341.051C209.105 341.09 209.102 341.133 209.094 341.18C209.031 341.907 208.699 342.27 208.098 342.27ZM205.766 341.801C205.938 341.801 206.113 341.762 206.293 341.684C206.746 341.465 207.031 341.086 207.148 340.547V339.61C206.539 339.618 206.074 339.657 205.754 339.727C205.152 339.868 204.852 340.2 204.852 340.723C204.852 340.856 204.863 340.977 204.887 341.086C204.996 341.563 205.289 341.801 205.766 341.801ZM212.141 341.86C212.188 341.86 212.227 341.864 212.258 341.872C212.375 341.887 212.434 341.981 212.434 342.153H209.539V341.86C209.805 341.86 209.996 341.84 210.113 341.801C210.316 341.731 210.418 341.516 210.418 341.157V337.465H209.539V337.172H211.238L211.285 338.333C211.387 338.098 211.523 337.887 211.695 337.7C212.062 337.301 212.48 337.102 212.949 337.102C213.02 337.102 213.094 337.11 213.172 337.125C213.531 337.204 213.711 337.418 213.711 337.77C213.711 337.817 213.703 337.864 213.688 337.911C213.625 338.137 213.477 338.25 213.242 338.25C213.195 338.25 213.148 338.243 213.102 338.227C212.992 338.196 212.875 338.071 212.75 337.852C212.641 337.657 212.52 337.559 212.387 337.559C212.27 337.567 212.125 337.653 211.953 337.817C211.516 338.247 211.297 338.817 211.297 339.528V341.86H212.141ZM214.004 337.465V337.172H214.824V336.059L215.703 335.813V337.172H217.52V337.465H215.703V341.028C215.711 341.614 215.926 341.915 216.348 341.93C216.723 341.875 217.008 341.524 217.203 340.875L217.52 340.934C217.52 340.942 217.52 340.95 217.52 340.958C217.34 341.84 216.891 342.282 216.172 342.282C215.328 342.25 214.879 341.747 214.824 340.77V337.465H214.004Z" fill="white"/>
<path d="M102.283 47.5578L124.562 69.587L102.283 91.1155L102.283 69.3366L102.283 47.5578Z" fill="#1B8198"/>
<path d="M296.071 257.555L273.791 235.526L296.071 213.997L296.071 235.776L296.071 257.555Z" fill="#1B8198"/>
<path d="M246.693 374.742L268.722 352.462L290.251 374.742L268.472 374.742L246.693 374.742Z" fill="#1B8198"/>
<path d="M188.413 25.7788L166.383 48.0586L144.855 25.7789L166.634 25.7789L188.413 25.7788Z" fill="#1B8198"/>
</svg>
